<?xml version="1.0" standalone="no"?>
<!DOCTYPE svg PUBLIC "-//W3C//DTD SVG 20010904//EN"
 "http://www.w3.org/TR/2001/REC-SVG-20010904/DTD/svg10.dtd">
<svg version="1.0" xmlns="http://www.w3.org/2000/svg"
 width="1024.000000pt" height="400.000000pt" viewBox="0 0 1024.000000 400.000000"
 preserveAspectRatio="xMidYMid meet">

<g transform="translate(0.000000,400.000000) scale(0.100000,-0.100000)"
fill="#000000" stroke="none">
<path d="M0 2000 l0 -2000 5120 0 5120 0 0 2000 0 2000 -5120 0 -5120 0 0
-2000z m3479 830 c47 -24 85 -81 86 -131 0 -34 3 -38 65 -70 76 -39 194 -148
245 -225 39 -59 89 -180 80 -195 -4 -5 -14 -9 -25 -9 -13 0 -23 15 -36 57 -42
133 -188 293 -312 343 -32 12 -35 11 -68 -21 -33 -32 -39 -34 -104 -34 -64 0
-71 2 -103 33 -79 77 -64 201 31 252 48 25 93 25 141 0z m-399 -159 c0 -14
-13 -23 -50 -35 -140 -46 -274 -163 -343 -300 l-25 -50 25 -19 c55 -43 70
-140 31 -197 -38 -55 -73 -75 -132 -75 -63 1 -107 28 -136 85 -24 46 -25 79
-6 123 23 55 69 89 125 95 l49 4 31 63 c58 118 200 248 327 300 73 30 104 32
104 6z m421 -339 c25 -28 29 -40 29 -92 l0 -60 53 0 c69 0 112 -26 127 -77 7
-24 10 -96 8 -190 l-3 -153 -33 -32 -32 -33 -135 -3 -134 -4 -85 -74 c-110
-97 -119 -97 -114 1 3 74 3 74 -24 80 -15 4 -41 22 -57 40 l-30 35 -29 -25
c-41 -34 -52 -19 -45 64 l5 66 -35 13 c-72 26 -77 43 -77 237 0 161 1 174 21
199 12 15 31 32 43 36 11 5 133 8 269 7 l249 -2 29 -33z m2344 -88 c12 -12 13
-19 4 -30 -6 -8 -17 -14 -24 -14 -7 0 -18 6 -24 14 -9 11 -8 18 4 30 9 9 18
16 20 16 2 0 11 -7 20 -16z m-1397 -119 c46 -69 87 -123 91 -121 4 3 45 59 90
126 67 98 87 120 107 120 l24 0 0 -240 0 -240 -25 0 -25 0 -2 197 -3 196 -85
-128 c-70 -106 -86 -125 -95 -111 -5 10 -43 65 -82 123 l-73 106 0 -191 0
-192 -30 0 -30 0 0 233 c0 129 3 237 7 240 3 4 16 7 27 7 16 -1 43 -33 104
-125z m2652 109 c99 -40 120 -172 39 -250 -28 -27 -37 -29 -115 -33 l-84 -3 0
-89 0 -89 -30 0 -30 0 0 233 c0 129 3 237 7 240 13 14 172 7 213 -9z m190
-224 c0 -233 -1 -240 -20 -240 -19 0 -20 7 -20 240 0 233 1 240 20 240 19 0
20 -7 20 -240z m-1650 155 l0 -55 56 0 c47 0 55 -3 52 -17 -2 -14 -15 -19 -56
-21 l-52 -3 0 -118 c0 -104 2 -120 19 -135 14 -13 28 -16 50 -11 24 5 32 3 37
-10 9 -22 -12 -35 -59 -35 -29 0 -46 7 -68 29 -29 29 -29 30 -29 155 l0 126
-30 0 c-23 0 -30 4 -30 20 0 16 7 20 30 20 30 0 30 1 30 55 0 52 1 55 25 55
24 0 25 -3 25 -55z m-554 -76 c32 -29 63 -94 64 -131 l0 -28 -135 0 c-133 0
-135 0 -135 -22 0 -98 146 -142 209 -62 12 15 25 22 35 18 22 -8 20 -26 -4
-52 -37 -39 -79 -55 -137 -50 -63 5 -98 28 -131 84 -19 32 -22 51 -20 105 6
112 70 173 176 166 38 -3 59 -10 78 -28z m370 0 c32 -29 63 -94 64 -131 l0
-28 -135 0 c-133 0 -135 0 -135 -22 0 -98 146 -142 209 -62 12 15 25 22 35 18
22 -8 20 -26 -4 -52 -37 -39 -79 -55 -137 -50 -63 5 -98 28 -131 84 -19 32
-22 51 -20 105 6 112 70 173 176 166 38 -3 59 -10 78 -28z m715 8 c47 -31 58
-72 58 -209 l1 -118 -24 0 c-24 0 -24 0 -28 129 -2 109 -6 132 -22 149 -40 46
-124 35 -151 -19 -11 -20 -15 -62 -15 -144 l0 -115 -25 0 -25 0 0 170 c0 163
1 170 20 170 14 0 20 -7 20 -22 l0 -21 23 20 c28 26 43 31 93 32 27 1 53 -7
75 -22z m353 -2 c34 -23 36 -23 36 -5 0 15 7 20 26 20 l26 0 -4 -187 c-3 -173
-5 -191 -25 -223 -42 -68 -117 -92 -208 -65 -43 12 -55 20 -53 33 2 10 11 16
23 14 77 -12 128 -13 154 -2 34 13 61 63 61 109 l0 30 -37 -25 c-76 -52 -181
-16 -219 73 -17 39 -18 111 -3 150 12 33 56 82 84 93 41 17 101 11 139 -15z
m1057 -1 c39 -34 49 -76 49 -204 0 -113 -1 -120 -20 -120 -14 0 -20 7 -20 21
0 20 -1 20 -32 -6 -28 -24 -38 -27 -87 -23 -45 4 -59 10 -83 37 -20 22 -28 42
-28 67 0 74 42 104 148 104 38 0 71 3 74 6 11 10 -11 69 -33 87 -31 25 -82 22
-117 -8 -27 -23 -62 -26 -62 -6 0 9 38 44 65 60 30 17 121 8 146 -15z m336 15
c28 -10 83 -57 83 -70 0 -21 -36 -17 -61 6 -60 58 -155 39 -190 -38 -24 -53
-23 -81 1 -135 35 -78 136 -95 192 -33 17 19 33 28 43 25 22 -9 18 -27 -12
-56 -82 -78 -211 -57 -260 42 -51 100 -9 227 87 263 25 9 87 8 117 -4z m363
-12 c43 -28 68 -71 72 -122 l3 -40 -138 -3 c-154 -3 -149 1 -110 -75 32 -64
135 -73 186 -16 27 29 30 30 45 15 15 -14 14 -18 -9 -42 -77 -84 -215 -66
-266 36 -51 100 -9 227 87 263 37 14 98 6 130 -16z m-2430 -157 l0 -170 -25 0
-25 0 0 170 0 170 25 0 25 0 0 -170z m-1798 44 c51 -26 68 -60 68 -137 0 -69
-1 -71 -39 -108 -38 -35 -106 -59 -129 -45 -5 3 -19 -17 -31 -45 -65 -143
-214 -277 -365 -329 -62 -21 -76 -19 -76 9 0 12 13 22 43 30 127 38 283 169
344 288 l31 61 -25 24 c-36 33 -53 71 -53 118 0 119 122 190 232 134z m-1427
-229 c41 -138 161 -277 296 -346 l56 -28 24 25 c55 59 125 70 194 29 101 -59
98 -206 -5 -264 -97 -54 -215 9 -227 122 -5 44 -7 46 -69 78 -79 39 -170 121
-229 204 -48 66 -100 189 -91 212 11 27 39 9 51 -32z"/>
<path d="M3349 2793 c-33 -20 -59 -63 -59 -98 0 -59 62 -125 118 -125 56 0
122 64 122 118 0 91 -105 152 -181 105z"/>
<path d="M2534 2251 c-45 -28 -64 -59 -64 -108 0 -64 39 -104 108 -111 48 -4
54 -2 86 30 43 43 53 78 35 125 -27 70 -107 101 -165 64z"/>
<path d="M2956 2309 l-26 -20 0 -160 c0 -156 1 -160 25 -184 15 -16 36 -25 55
-25 l30 0 0 -61 c0 -54 2 -60 15 -49 12 10 15 40 15 147 0 215 9 223 255 223
l165 0 0 50 c0 41 -5 56 -25 75 l-24 25 -229 0 c-217 0 -231 -1 -256 -21z"/>
<path d="M3139 2121 c-22 -18 -24 -27 -27 -140 -2 -67 -1 -121 3 -121 3 0 20
13 38 30 l32 30 126 0 c111 0 129 2 152 20 24 19 26 28 29 110 l3 90 -166 0
c-149 0 -169 -2 -190 -19z"/>
<path d="M3528 2046 c-2 -77 -7 -98 -23 -116 -35 -39 -77 -50 -196 -50 l-112
0 -43 -36 c-24 -19 -44 -39 -44 -44 0 -5 10 -21 23 -35 19 -22 41 -30 91 -34
5 -1 6 -28 3 -62 -6 -69 -10 -70 85 13 l53 46 132 4 c182 4 173 -6 173 209 0
162 -1 168 -22 183 -13 9 -43 16 -69 16 l-47 0 -4 -94z"/>
<path d="M6988 2202 l-48 -3 0 -100 0 -99 58 -2 c86 -2 95 0 120 28 16 18 22
38 22 69 0 78 -51 113 -152 107z"/>
<path d="M4945 2066 c-30 -13 -65 -54 -65 -76 0 -6 41 -10 110 -10 61 0 110 3
110 8 0 20 -43 74 -66 82 -33 13 -52 12 -89 -4z"/>
<path d="M5315 2066 c-30 -13 -65 -54 -65 -76 0 -6 41 -10 110 -10 61 0 110 3
110 8 0 20 -43 74 -66 82 -33 13 -52 12 -89 -4z"/>
<path d="M6374 2046 c-32 -32 -34 -38 -34 -101 0 -63 2 -69 34 -101 79 -79
186 -20 186 101 0 83 -43 135 -113 135 -31 0 -46 -7 -73 -34z"/>
<path d="M7427 1918 c-9 -7 -19 -25 -22 -40 -14 -57 64 -96 129 -67 27 13 56
64 56 98 0 19 -6 21 -73 21 -43 0 -80 -5 -90 -12z"/>
<path d="M8143 2060 c-33 -20 -53 -48 -53 -74 0 -14 17 -16 111 -16 l111 0 -6
28 c-4 15 -20 39 -37 55 -35 33 -80 35 -126 7z"/>
<path d="M3909 1947 c-122 -82 -10 -269 121 -202 81 42 79 170 -4 209 -46 22
-77 20 -117 -7z"/>
<path d="M3040 1393 c-83 -76 -35 -203 77 -203 38 0 50 5 79 34 40 40 46 78
22 139 -24 61 -125 77 -178 30z"/>
</g>
</svg>
